<svg width="188" height="42" fill="none" xmlns="http://www.w3.org/2000/svg"><rect x=".5" y=".5" width="187" height="41" rx="3.5" fill="#fff" stroke="#4E6297"/><path d="M73.06 17.726v2.982h4.732v1.54H73.06V26h-1.82v-9.8h7.154v1.526H73.06zm9.69.714c1.1 0 1.94.266 2.52.798.587.523.881 1.316.881 2.38V26H84.5v-.91a2.073 2.073 0 01-.924.756c-.392.168-.868.252-1.428.252-.56 0-1.05-.093-1.47-.28a2.392 2.392 0 01-.98-.798 2.09 2.09 0 01-.336-1.162c0-.672.248-1.209.742-1.61.504-.41 1.293-.616 2.366-.616h1.932v-.112c0-.523-.158-.924-.476-1.204-.308-.28-.77-.42-1.386-.42-.42 0-.835.065-1.246.196a3.05 3.05 0 00-1.022.546l-.686-1.274A4.248 4.248 0 0181 18.678a6.29 6.29 0 011.75-.238zm-.239 6.384c.439 0 .826-.098 1.162-.294a1.66 1.66 0 00.728-.868v-.868h-1.806c-1.008 0-1.512.331-1.512.994 0 .317.126.57.378.756.252.187.602.28 1.05.28zm9.525 1.274c-.775 0-1.47-.163-2.087-.49a3.613 3.613 0 01-1.442-1.358c-.345-.588-.517-1.25-.517-1.988 0-.737.172-1.395.517-1.974a3.636 3.636 0 011.428-1.358c.617-.327 1.316-.49 2.1-.49.738 0 1.382.15 1.933.448a2.9 2.9 0 011.26 1.288l-1.344.784a2.066 2.066 0 00-.813-.77 2.116 2.116 0 00-1.05-.266c-.653 0-1.194.215-1.624.644-.429.42-.644.985-.644 1.694 0 .71.21 1.279.63 1.708.43.42.976.63 1.639.63.382 0 .732-.084 1.05-.252.326-.177.597-.439.811-.784l1.345.784a3.06 3.06 0 01-1.274 1.302c-.551.299-1.19.448-1.918.448zm11.763-3.794c0 .121-.009.294-.028.518h-5.866c.103.55.369.99.798 1.316.439.317.98.476 1.624.476.821 0 1.498-.27 2.03-.812l.938 1.078a3.163 3.163 0 01-1.274.91c-.513.205-1.092.308-1.736.308-.821 0-1.545-.163-2.17-.49a3.591 3.591 0 01-1.456-1.358c-.336-.588-.504-1.25-.504-1.988 0-.728.163-1.381.49-1.96a3.56 3.56 0 011.386-1.372c.588-.327 1.25-.49 1.988-.49.728 0 1.377.163 1.946.49a3.3 3.3 0 011.344 1.358c.327.579.49 1.25.49 2.016zm-3.78-2.464c-.56 0-1.036.168-1.428.504-.383.327-.616.765-.7 1.316h4.242c-.075-.541-.303-.98-.686-1.316-.383-.336-.859-.504-1.428-.504zm9.745-1.4c.728 0 1.377.159 1.946.476a3.42 3.42 0 011.358 1.344c.327.579.49 1.246.49 2.002 0 .756-.163 1.428-.49 2.016a3.42 3.42 0 01-1.358 1.344c-.569.317-1.218.476-1.946.476a3.67 3.67 0 01-1.414-.266 2.715 2.715 0 01-1.064-.798V26h-1.666V15.612h1.75v3.822a2.959 2.959 0 011.05-.742 3.518 3.518 0 011.344-.252zm-.196 6.16c.644 0 1.171-.215 1.582-.644.42-.43.63-.994.63-1.694s-.21-1.265-.63-1.694c-.411-.43-.938-.644-1.582-.644-.42 0-.798.098-1.134.294a2.026 2.026 0 00-.798.812c-.196.355-.294.765-.294 1.232 0 .467.098.877.294 1.232.196.355.462.63.798.826.336.187.714.28 1.134.28zm9.15 1.498c-.756 0-1.438-.163-2.044-.49a3.632 3.632 0 01-1.428-1.358c-.336-.588-.504-1.25-.504-1.988 0-.737.168-1.395.504-1.974a3.632 3.632 0 011.428-1.358c.606-.327 1.288-.49 2.044-.49.765 0 1.451.163 2.058.49a3.55 3.55 0 011.414 1.358c.345.579.518 1.237.518 1.974 0 .737-.173 1.4-.518 1.988a3.543 3.543 0 01-1.414 1.358c-.607.327-1.293.49-2.058.49zm0-1.498c.644 0 1.176-.215 1.596-.644.42-.43.63-.994.63-1.694s-.21-1.265-.63-1.694c-.42-.43-.952-.644-1.596-.644-.644 0-1.176.215-1.596.644-.411.43-.616.994-.616 1.694s.205 1.265.616 1.694c.42.43.952.644 1.596.644zm9.163 1.498c-.756 0-1.437-.163-2.044-.49a3.632 3.632 0 01-1.428-1.358c-.336-.588-.504-1.25-.504-1.988 0-.737.168-1.395.504-1.974a3.632 3.632 0 011.428-1.358c.607-.327 1.288-.49 2.044-.49.765 0 1.451.163 2.058.49.607.327 1.078.78 1.414 1.358.345.579.518 1.237.518 1.974 0 .737-.173 1.4-.518 1.988a3.537 3.537 0 01-1.414 1.358c-.607.327-1.293.49-2.058.49zm0-1.498c.644 0 1.176-.215 1.596-.644.42-.43.63-.994.63-1.694s-.21-1.265-.63-1.694c-.42-.43-.952-.644-1.596-.644-.644 0-1.176.215-1.596.644-.411.43-.616.994-.616 1.694s.205 1.265.616 1.694c.42.43.952.644 1.596.644zm8.855-1.806l-1.302 1.232V26h-1.75V15.612h1.75v6.272l3.626-3.36h2.1l-3.122 3.136 3.416 4.34h-2.128l-2.59-3.206z" fill="#4E6297"/><circle cx="24" cy="21" r="10" fill="#4E6297"/><path d="M28.5 17.91c0-.75-.66-1.41-1.41-1.41h-5.68c-.75 0-1.41.66-1.41 1.41v5.68c0 .75.66 1.41 1.41 1.41h2.862v-3.215h-1.057v-1.41h1.057v-.572c0-.969.705-1.806 1.586-1.806h1.145v1.41h-1.145c-.133 0-.265.132-.265.396v.573h1.41v1.409h-1.41V25h1.498c.748 0 1.409-.66 1.409-1.41v-5.68z" fill="#fff"/></svg>