<svg width="188" height="42" fill="none" xmlns="http://www.w3.org/2000/svg"><rect x=".5" y=".5" width="187" height="41" rx="3.5" fill="#fff" stroke="url(#paint0_linear)"/><path d="M69.187 16.2h1.82V26h-1.82v-9.8zm8.685 2.24c.942 0 1.698.275 2.268.826.57.55.854 1.367.854 2.45V26h-1.75v-4.06c0-.653-.154-1.143-.462-1.47-.308-.336-.747-.504-1.316-.504-.644 0-1.153.196-1.526.588-.373.383-.56.938-.56 1.666V26h-1.75v-7.476h1.666v.966c.29-.345.653-.607 1.092-.784a3.93 3.93 0 011.484-.266zm7.792 7.658c-.607 0-1.2-.08-1.778-.238-.579-.159-1.04-.36-1.386-.602l.672-1.33a4.48 4.48 0 001.204.546c.476.13.942.196 1.4.196 1.045 0 1.568-.275 1.568-.826 0-.261-.135-.443-.406-.546-.261-.103-.686-.2-1.274-.294a10.52 10.52 0 01-1.512-.322 2.393 2.393 0 01-1.008-.63c-.28-.308-.42-.733-.42-1.274 0-.71.294-1.274.882-1.694.597-.43 1.4-.644 2.408-.644.513 0 1.026.06 1.54.182.513.112.933.266 1.26.462l-.672 1.33c-.635-.373-1.349-.56-2.142-.56-.513 0-.906.08-1.176.238-.261.15-.392.35-.392.602 0 .28.14.48.42.602.29.112.733.22 1.33.322.597.093 1.087.2 1.47.322.382.121.71.327.98.616.28.29.42.7.42 1.232 0 .7-.303 1.26-.91 1.68-.607.42-1.433.63-2.478.63zm9.529-.504a2.056 2.056 0 01-.756.378 3.3 3.3 0 01-.924.126c-.821 0-1.456-.215-1.904-.644-.448-.43-.672-1.055-.672-1.876V19.98h-1.232v-1.4h1.232v-1.708h1.75v1.708h2.002v1.4h-2.002v3.556c0 .364.089.644.266.84.177.187.434.28.77.28.392 0 .719-.103.98-.308l.49 1.246zm4.436-7.154c1.101 0 1.941.266 2.52.798.588.523.882 1.316.882 2.38V26h-1.652v-.91a2.077 2.077 0 01-.924.756c-.392.168-.868.252-1.428.252-.56 0-1.05-.093-1.47-.28a2.392 2.392 0 01-.98-.798 2.09 2.09 0 01-.337-1.162c0-.672.248-1.209.743-1.61.504-.41 1.292-.616 2.365-.616h1.933v-.112c0-.523-.159-.924-.476-1.204-.308-.28-.77-.42-1.387-.42-.42 0-.835.065-1.246.196-.4.13-.742.313-1.022.546l-.686-1.274a4.248 4.248 0 011.415-.686 6.29 6.29 0 011.75-.238zm-.239 6.384c.44 0 .827-.098 1.163-.294.345-.205.588-.495.728-.868v-.868h-1.806c-1.008 0-1.512.331-1.512.994 0 .317.126.57.378.756.252.187.602.28 1.05.28zm13.515-6.3v6.342c0 2.632-1.344 3.948-4.032 3.948-.719 0-1.4-.093-2.044-.28-.644-.177-1.176-.439-1.596-.784l.784-1.316c.326.27.737.485 1.232.644a4.795 4.795 0 001.526.252c.821 0 1.423-.187 1.806-.56.382-.373.574-.943.574-1.708v-.392a2.882 2.882 0 01-1.092.742c-.43.168-.901.252-1.414.252-.71 0-1.354-.15-1.932-.448a3.527 3.527 0 01-1.358-1.288c-.327-.55-.49-1.18-.49-1.89s.163-1.335.49-1.876c.336-.55.788-.975 1.358-1.274a4.145 4.145 0 011.932-.448 3.9 3.9 0 011.47.266c.448.177.821.448 1.12.812v-.994h1.666zm-3.99 5.656c.662 0 1.204-.196 1.624-.588.429-.401.644-.92.644-1.554 0-.625-.215-1.134-.644-1.526-.42-.392-.962-.588-1.624-.588-.672 0-1.223.196-1.652.588-.42.392-.63.9-.63 1.526 0 .635.21 1.153.63 1.554.429.392.98.588 1.652.588zm8.097-4.564c.504-.784 1.39-1.176 2.66-1.176v1.666a2.23 2.23 0 00-.406-.042c-.682 0-1.214.2-1.596.602-.383.392-.574.961-.574 1.708V26h-1.75v-7.476h1.666v1.092zm7.099-1.176c1.101 0 1.941.266 2.52.798.588.523.882 1.316.882 2.38V26h-1.652v-.91a2.077 2.077 0 01-.924.756c-.392.168-.868.252-1.428.252-.56 0-1.05-.093-1.47-.28a2.39 2.39 0 01-.98-.798 2.09 2.09 0 01-.336-1.162c0-.672.247-1.209.742-1.61.504-.41 1.293-.616 2.366-.616h1.932v-.112c0-.523-.159-.924-.476-1.204-.308-.28-.77-.42-1.386-.42-.42 0-.835.065-1.246.196a3.05 3.05 0 00-1.022.546l-.686-1.274a4.245 4.245 0 011.414-.686 6.292 6.292 0 011.75-.238zm-.238 6.384c.439 0 .826-.098 1.162-.294.345-.205.588-.495.728-.868v-.868h-1.806c-1.008 0-1.512.331-1.512.994 0 .317.126.57.378.756.252.187.602.28 1.05.28zm15.462-6.384c.943 0 1.689.275 2.24.826.551.541.826 1.358.826 2.45V26h-1.75v-4.06c0-.653-.145-1.143-.434-1.47-.289-.336-.705-.504-1.246-.504-.588 0-1.059.196-1.414.588-.355.383-.532.933-.532 1.652V26h-1.75v-4.06c0-.653-.145-1.143-.434-1.47-.289-.336-.705-.504-1.246-.504-.597 0-1.073.191-1.428.574-.345.383-.518.938-.518 1.666V26h-1.75v-7.476h1.666v.952a2.72 2.72 0 011.05-.77c.42-.177.887-.266 1.4-.266.56 0 1.055.107 1.484.322.439.205.784.513 1.036.924a3.058 3.058 0 011.19-.91 3.795 3.795 0 011.61-.336z" fill="url(#paint1_linear)"/><circle cx="24" cy="21" r="10" fill="url(#paint2_linear)"/><path d="M27.29 17h-6.08c-.687 0-1.21.523-1.21 1.21v6.08c0 .687.523 1.21 1.21 1.21h6.08c.687 0 1.21-.523 1.21-1.21v-6.08c0-.687-.523-1.21-1.21-1.21zm-3.04 6.8c1.406 0 2.55-1.111 2.55-2.452 0-.229-.033-.49-.098-.686h.72v3.465a.329.329 0 01-.328.327h-5.688a.328.328 0 01-.327-.327v-3.498h.752a2.489 2.489 0 00-.098.686C21.7 22.688 22.844 23.8 24.25 23.8zm0-.98c-.915 0-1.635-.72-1.635-1.603 0-.882.72-1.602 1.635-1.602s1.635.72 1.635 1.602c0 .916-.72 1.602-1.635 1.602zm3.139-3.499c0 .196-.164.36-.36.36h-.916a.363.363 0 01-.36-.36v-.883c0-.196.164-.36.36-.36h.916c.196 0 .36.164.36.36v.883z" fill="#fff"/><defs><linearGradient id="paint0_linear" x1="39.95" y1="37.275" x2="51.408" y2="-15.947" gradientUnits="userSpaceOnUse"><stop stop-color="#EEA054"/><stop offset=".503" stop-color="#D64763"/><stop offset="1" stop-color="#B62A99"/></linearGradient><linearGradient id="paint1_linear" x1="67.915" y1="28.637" x2="72.098" y2="1.437" gradientUnits="userSpaceOnUse"><stop stop-color="#EEA054"/><stop offset=".503" stop-color="#D64763"/><stop offset="1" stop-color="#B62A99"/></linearGradient><linearGradient id="paint2_linear" x1="18.25" y1="28.75" x2="31.5" y2="15" gradientUnits="userSpaceOnUse"><stop stop-color="#EEA054"/><stop offset=".503" stop-color="#D64763"/><stop offset="1" stop-color="#B62A99"/></linearGradient></defs></svg>