<svg width="188" height="42" fill="none" xmlns="http://www.w3.org/2000/svg"><rect x=".5" y=".5" width="187" height="41" rx="3.5" fill="#fff" stroke="#F79A38"/><path d="M49.935 26.14c-.998 0-1.899-.215-2.702-.644a4.887 4.887 0 01-1.89-1.806c-.457-.775-.686-1.638-.686-2.59s.23-1.81.687-2.576a4.756 4.756 0 011.89-1.806c.802-.439 1.703-.658 2.701-.658 1 0 1.9.22 2.703.658a4.786 4.786 0 011.89 1.792c.457.765.686 1.629.686 2.59 0 .961-.23 1.825-.686 2.59a4.887 4.887 0 01-1.89 1.806c-.803.43-1.704.644-2.703.644zm0-1.596a3.58 3.58 0 001.764-.434c.523-.299.934-.71 1.233-1.232a3.569 3.569 0 00.447-1.778 3.5 3.5 0 00-.447-1.764 3.128 3.128 0 00-1.233-1.232 3.491 3.491 0 00-1.764-.448c-.653 0-1.24.15-1.764.448-.522.29-.933.7-1.231 1.232a3.491 3.491 0 00-.448 1.764c0 .653.149 1.246.448 1.778.298.523.709.933 1.232 1.232a3.58 3.58 0 001.764.434zm14.982-.028v3.15H63.28V26h-5.768v1.666h-1.624v-3.15h.35c.476-.019.798-.322.966-.91.178-.597.294-1.437.35-2.52l.098-2.562h6.16v5.992h1.106zm-5.768-3.304c-.037.859-.107 1.559-.21 2.1-.102.541-.29.943-.56 1.204h3.682v-4.508h-2.87l-.042 1.204zm7.471-2.688h1.75v3.038h3.766v-3.038h1.75V26h-1.75v-2.954H68.37V26h-1.75v-7.476zm13.084 7.574c-.756 0-1.438-.163-2.044-.49a3.638 3.638 0 01-1.428-1.358c-.337-.588-.504-1.25-.504-1.988 0-.737.168-1.395.504-1.974a3.638 3.638 0 011.427-1.358c.607-.327 1.288-.49 2.044-.49.766 0 1.452.163 2.058.49.607.327 1.079.78 1.415 1.358.345.579.517 1.237.517 1.974 0 .737-.172 1.4-.517 1.988a3.539 3.539 0 01-1.415 1.358c-.606.327-1.292.49-2.057.49zm0-1.498c.644 0 1.175-.215 1.596-.644.42-.43.63-.994.63-1.694s-.21-1.265-.63-1.694c-.42-.43-.953-.644-1.596-.644-.644 0-1.176.215-1.596.644-.411.43-.617.994-.617 1.694s.206 1.265.617 1.694c.42.43.951.644 1.596.644zm8.966-1.596h-1.358V26h-1.75v-7.476h1.75v3.024h1.4l2.212-3.024H92.8l-2.716 3.598L92.982 26h-2.058l-2.254-2.996zm12.463-4.48V26h-1.75v-5.992h-2.8l-.07 1.484c-.047.99-.14 1.82-.28 2.492-.131.663-.36 1.19-.686 1.582-.318.383-.756.574-1.316.574-.262 0-.584-.051-.966-.154l.084-1.47c.13.028.242.042.336.042.354 0 .62-.14.798-.42.177-.29.289-.63.336-1.022.056-.401.102-.97.14-1.708l.126-2.884h6.048zm5.282-.084c1.102 0 1.942.266 2.52.798.588.523.882 1.316.882 2.38V26h-1.652v-.91a2.067 2.067 0 01-.924.756c-.392.168-.868.252-1.428.252-.56 0-1.05-.093-1.47-.28a2.396 2.396 0 01-.98-.798 2.09 2.09 0 01-.336-1.162c0-.672.248-1.209.742-1.61.504-.41 1.293-.616 2.366-.616h1.932v-.112c0-.523-.158-.924-.476-1.204-.308-.28-.77-.42-1.386-.42-.42 0-.835.065-1.246.196a3.05 3.05 0 00-1.022.546l-.686-1.274a4.254 4.254 0 011.414-.686 6.292 6.292 0 011.75-.238zm-.238 6.384c.439 0 .826-.098 1.162-.294a1.66 1.66 0 00.728-.868v-.868h-1.806c-1.008 0-1.512.331-1.512.994 0 .317.126.57.378.756.252.187.602.28 1.05.28zm9.348 1.274c-.775 0-1.47-.163-2.086-.49a3.61 3.61 0 01-1.442-1.358c-.345-.588-.518-1.25-.518-1.988 0-.737.173-1.395.518-1.974a3.632 3.632 0 011.428-1.358c.616-.327 1.316-.49 2.1-.49.737 0 1.381.15 1.932.448a2.9 2.9 0 011.26 1.288l-1.344.784a2.066 2.066 0 00-.812-.77 2.114 2.114 0 00-1.05-.266c-.653 0-1.195.215-1.624.644-.429.42-.644.985-.644 1.694 0 .71.21 1.279.63 1.708.429.42.975.63 1.638.63.383 0 .733-.084 1.05-.252.327-.177.597-.439.812-.784l1.344.784a3.06 3.06 0 01-1.274 1.302c-.551.299-1.19.448-1.918.448zm8.165 0c-.774 0-1.47-.163-2.086-.49a3.617 3.617 0 01-1.442-1.358c-.345-.588-.518-1.25-.518-1.988 0-.737.173-1.395.518-1.974a3.646 3.646 0 011.428-1.358c.616-.327 1.316-.49 2.1-.49.738 0 1.382.15 1.932.448a2.9 2.9 0 011.26 1.288l-1.344.784a2.06 2.06 0 00-.812-.77 2.114 2.114 0 00-1.05-.266c-.653 0-1.194.215-1.624.644-.429.42-.644.985-.644 1.694 0 .71.21 1.279.63 1.708.43.42.976.63 1.638.63.383 0 .733-.084 1.05-.252.327-.177.598-.439.812-.784l1.344.784a3.06 3.06 0 01-1.274 1.302c-.55.299-1.19.448-1.918.448zm4.873-7.574h1.75v3.038h3.766v-3.038h1.75V26h-1.75v-2.954h-3.766V26h-1.75v-7.476zm9.751 0h1.75v4.928l4.13-4.928h1.596V26h-1.75v-4.928L139.924 26h-1.61v-7.476zm13.079 4.48h-1.358V26h-1.75v-7.476h1.75v3.024h1.4l2.212-3.024h1.876l-2.716 3.598L155.705 26h-2.058l-2.254-2.996zm5.686-4.48h1.75v4.928l4.13-4.928h1.596V26h-1.75v-4.928L158.689 26h-1.61v-7.476z" fill="#F79A38"/><circle cx="24" cy="21" r="10" fill="#F79A38"/><path d="M27.119 22.396c.262-.262.3-.637.075-1.012a.835.835 0 00-.9-.374c-.15.037-.3.112-.45.224-1.161.788-2.736.75-3.898-.037l-.224-.112c-.413-.188-.825-.113-1.05.262-.262.375-.225.787.113 1.124.075.075.15.113.187.188l.037.037c.525.412 1.162.675 1.987.787l-.487.488-1.275 1.274c-.112.112-.262.3-.262.562 0 .338.187.675.525.825.112.075.225.075.337.075a.724.724 0 00.562-.263l1.462-1.461.037-.038s.038 0 .038.038c.3.337.637.637.937.974l.45.45c.187.187.337.262.562.262.337.038.712-.187.862-.524a.75.75 0 00-.187-.9c-.375-.375-.75-.787-1.162-1.162l-.637-.637a3.596 3.596 0 001.049-.263c.562-.187.975-.45 1.312-.787z" fill="#fff"/><path d="M23.895 21.347c1.612 0 2.924-1.274 2.924-2.886 0-.787-.3-1.537-.862-2.099-.562-.562-1.274-.862-2.024-.862-1.612 0-2.886 1.312-2.924 2.886 0 .787.3 1.5.863 2.061.524.6 1.236.9 2.023.9zm-.824-3.748c.225-.225.525-.337.824-.337.675 0 1.162.524 1.162 1.162 0 .674-.524 1.161-1.162 1.161a1.144 1.144 0 01-1.161-1.162c0-.3.112-.6.337-.824z" fill="#fff"/><path d="M27.119 22.396c.262-.262.3-.637.075-1.012a.835.835 0 00-.9-.374c-.15.037-.3.112-.45.224-1.161.788-2.736.75-3.898-.037l-.224-.112c-.413-.188-.825-.113-1.05.262-.262.375-.225.787.113 1.124.075.075.15.113.187.188l.037.037c.525.412 1.162.675 1.987.787l-.487.488-1.275 1.274c-.112.112-.262.3-.262.562 0 .338.187.675.525.825.112.075.225.075.337.075a.724.724 0 00.562-.263l1.462-1.461.037-.038s.038 0 .038.038c.3.337.637.637.937.974l.45.45c.187.187.337.262.562.262.337.038.712-.187.862-.524a.75.75 0 00-.187-.9c-.375-.375-.75-.787-1.162-1.162l-.637-.637a3.596 3.596 0 001.049-.263c.562-.187.975-.45 1.312-.787z" fill="#fff"/></svg>