<svg width="188" height="42" fill="none" xmlns="http://www.w3.org/2000/svg"><rect x=".5" y=".5" width="187" height="41" rx="3.5" fill="#fff" stroke="#7294C7"/><path d="M73.612 20.904c.626.168 1.102.457 1.428.868.327.401.49.905.49 1.512 0 .859-.317 1.526-.952 2.002-.635.476-1.554.714-2.758.714h-4.648v-9.8h4.382c1.102 0 1.96.22 2.576.658.616.439.924 1.06.924 1.862 0 .513-.126.957-.378 1.33-.243.373-.597.658-1.064.854zm-4.648-.518H71.4c.588 0 1.036-.117 1.344-.35.308-.233.462-.579.462-1.036 0-.457-.154-.803-.462-1.036-.308-.243-.756-.364-1.344-.364h-2.436v2.786zm2.8 4.214c1.288 0 1.932-.485 1.932-1.456 0-.952-.644-1.428-1.932-1.428h-2.8V24.6h2.8zm9.592-2.73h-1.82V26h-1.793v-9.8h1.793v4.102h1.876l2.813-4.102h1.933l-3.347 4.746L86.283 26h-2.058l-2.87-4.13zm9.343 4.228c-.756 0-1.437-.163-2.044-.49a3.636 3.636 0 01-1.428-1.358c-.336-.588-.504-1.25-.504-1.988 0-.737.168-1.395.504-1.974a3.636 3.636 0 011.428-1.358c.607-.327 1.288-.49 2.044-.49.766 0 1.451.163 2.058.49.607.327 1.078.78 1.414 1.358.345.579.518 1.237.518 1.974 0 .737-.172 1.4-.518 1.988a3.539 3.539 0 01-1.414 1.358c-.607.327-1.293.49-2.058.49zm0-1.498c.644 0 1.176-.215 1.596-.644.42-.43.63-.994.63-1.694s-.21-1.265-.63-1.694c-.42-.43-.952-.644-1.596-.644-.644 0-1.176.215-1.596.644-.41.43-.616.994-.616 1.694s.206 1.265.616 1.694c.42.43.952.644 1.596.644zm5.859-6.076h1.75v3.038h3.766v-3.038h1.75V26h-1.75v-2.954h-3.766V26h-1.75v-7.476zm15.673 1.484h-2.618V26h-1.75v-5.992h-2.632v-1.484h7v1.484zm4.196-1.568c1.101 0 1.941.266 2.52.798.588.523.882 1.316.882 2.38V26h-1.652v-.91a2.077 2.077 0 01-.924.756c-.392.168-.868.252-1.428.252-.56 0-1.05-.093-1.47-.28a2.39 2.39 0 01-.98-.798 2.09 2.09 0 01-.336-1.162c0-.672.247-1.209.742-1.61.504-.41 1.292-.616 2.366-.616h1.932v-.112c0-.523-.159-.924-.476-1.204-.308-.28-.77-.42-1.386-.42-.42 0-.836.065-1.246.196a3.04 3.04 0 00-1.022.546l-.686-1.274a4.245 4.245 0 011.414-.686 6.287 6.287 0 011.75-.238zm-.238 6.384c.438 0 .826-.098 1.162-.294.345-.205.588-.495.728-.868v-.868h-1.806c-1.008 0-1.512.331-1.512.994 0 .317.126.57.378.756.252.187.602.28 1.05.28zm9.053-1.82h-1.358V26h-1.75v-7.476h1.75v3.024h1.4l2.212-3.024h1.876l-2.716 3.598L129.554 26h-2.058l-2.254-2.996zm11.513-2.996h-2.618V26h-1.75v-5.992h-2.632v-1.484h7v1.484zm8.081 2.296c0 .121-.009.294-.028.518h-5.866c.103.55.369.99.798 1.316.439.317.98.476 1.624.476.821 0 1.498-.27 2.03-.812l.938 1.078a3.163 3.163 0 01-1.274.91c-.513.205-1.092.308-1.736.308-.821 0-1.545-.163-2.17-.49a3.591 3.591 0 01-1.456-1.358c-.336-.588-.504-1.25-.504-1.988 0-.728.163-1.381.49-1.96a3.56 3.56 0 011.386-1.372c.588-.327 1.251-.49 1.988-.49.728 0 1.377.163 1.946.49a3.3 3.3 0 011.344 1.358c.327.579.49 1.25.49 2.016zm-3.78-2.464c-.56 0-1.036.168-1.428.504-.383.327-.616.765-.7 1.316h4.242c-.075-.541-.303-.98-.686-1.316-.383-.336-.859-.504-1.428-.504z" fill="#7294C7"/><circle cx="24" cy="21" r="10" fill="#7294C7"/><path d="M28.903 23.558c0-.042-.042-.042-.042-.083-.166-.332-.54-.748-1.038-1.204-.249-.208-.373-.374-.456-.457-.125-.166-.125-.29-.083-.456.041-.125.207-.332.498-.706.166-.208.249-.332.374-.457.622-.83.913-1.37.83-1.619l-.042-.041c-.041-.042-.083-.083-.166-.083-.083-.042-.207-.042-.332 0h-1.868l-.041.041c-.042.042-.042.042-.042.083-.166.457-.373.83-.581 1.246-.125.207-.25.415-.374.58-.124.167-.207.291-.29.374-.083.083-.166.125-.208.208-.041.041-.124.083-.124.041-.042 0-.083 0-.083-.041l-.125-.125c-.041-.041-.041-.124-.083-.207v-2.076c0-.041-.041-.124-.041-.166l-.125-.124c-.041-.042-.124-.042-.166-.083a3.724 3.724 0 00-.747-.083c-.664 0-1.121.041-1.287.124-.083.042-.166.083-.208.166-.083.083-.083.125-.041.125.207.041.373.124.456.249l.042.083c.041.041.041.124.083.249.041.125.041.249.041.415v.664c0 .208-.041.332-.041.457 0 .124-.041.207-.083.249-.042.083-.042.125-.083.125 0 0 0 .041-.041.041-.042 0-.084.041-.167.041a.315.315 0 01-.166-.082.5.5 0 01-.207-.208 1.45 1.45 0 01-.25-.374c-.082-.166-.207-.332-.29-.58l-.083-.167a5.86 5.86 0 01-.207-.456c-.083-.208-.166-.374-.25-.582-.041-.083-.082-.124-.124-.166h-.041s-.042-.041-.084-.041c-.041 0-.083-.042-.124-.042h-1.495c-.165 0-.249.042-.29.083l-.042.042v.083c0 .041 0 .083.042.166.207.498.456.996.706 1.494.249.457.498.872.664 1.163.207.29.373.58.581.83.207.249.332.415.374.498l.166.166.124.125c.083.083.208.207.374.332.166.124.373.249.58.373.209.125.457.208.707.29.29.084.54.125.788.084h.623a.377.377 0 00.29-.125l.042-.041c0-.042.042-.042.042-.083v-.166c0-.166 0-.29.041-.415.042-.125.042-.208.083-.291a.566.566 0 01.125-.166l.083-.083h.041c.083-.041.208 0 .29.083.125.083.25.208.333.332.083.125.207.25.373.415.166.166.291.29.374.332l.125.083c.083.042.166.083.29.125.125.041.208.041.29.041l1.412-.041a.783.783 0 00.332-.083c.083-.042.125-.083.125-.166v-.166c-.083-.083-.083-.125-.083-.166z" fill="#fff"/></svg>